<svg xmlns="http://www.w3.org/2000/svg" xmlns:xlink="http://www.w3.org/1999/xlink" version="1.1" x="0px" y="0px" viewBox="0 0 128 160" style="enable-background:new 0 0 128 128;" xml:space="preserve"><g><path d="M108.994,93.002c-8.837,0-16.001,7.164-16.001,16.001c0,8.837,7.164,16.001,16.001,16.001s16.001-7.164,16.001-16.001   C124.995,100.166,117.831,93.002,108.994,93.002z M100.993,115c-1.104,0-2-0.895-2-2c0-1.105,0.896-2,2-2c1.105,0,2,0.895,2,2   C102.993,114.105,102.098,115,100.993,115z M100.993,106c-1.104,0-2-0.895-2-2c0-1.105,0.896-2,2-2c1.105,0,2,0.895,2,2   C102.993,105.105,102.098,106,100.993,106z M108.993,121c-1.104,0-2-0.895-2-2c0-1.105,0.896-2,2-2c1.105,0,2,0.895,2,2   C110.993,120.105,110.098,121,108.993,121z M108.993,111c-1.104,0-2-0.895-2-2c0-1.105,0.896-2,2-2c1.105,0,2,0.895,2,2   C110.993,110.105,110.098,111,108.993,111z M108.993,101c-1.104,0-2-0.895-2-2c0-1.105,0.896-2,2-2c1.105,0,2,0.895,2,2   C110.993,100.105,110.098,101,108.993,101z M116.993,115c-1.104,0-2-0.895-2-2c0-1.105,0.896-2,2-2c1.105,0,2,0.895,2,2   C118.993,114.105,118.098,115,116.993,115z M116.993,106c-1.104,0-2-0.895-2-2c0-1.105,0.896-2,2-2c1.105,0,2,0.895,2,2   C118.993,105.105,118.098,106,116.993,106z"/><path d="M35.235,92.647l-4.26-4.26L5.438,113.013l9.561,9.561L39.63,97.047l-4.344-4.344   C35.269,92.685,35.251,92.666,35.235,92.647z"/><path d="M2.993,116.97c-0.005,1.056,0.575,2.174,1.725,3.323l3,3c1.511,1.511,3.264,2.586,5.818,0.646l-9.487-9.487   C3.359,115.309,2.997,116.154,2.993,116.97z"/><path d="M116.293,39.714c-0.005-0.005-0.01-0.01-0.014-0.014L99.623,22.698c-0.011-0.012-0.022-0.023-0.033-0.036L88.297,11.718   C85.26,8.625,81.703,7,77.993,7c-3.7,0.011-7.353,1.679-10.282,4.696L38.7,40.707c-6.743,6.379-5.473,17.511-0.863,24.756   c1.999,3.144,4.39,9.654-1.545,18.422l7.803,7.803C47.653,89.175,51.137,88,54.993,88c3.111,0,6.372,1.896,8.32,3.03l0.182,0.104   c8.644,5.017,18.885,2.999,23.796-1.847l28.995-28.995c3.073-2.986,4.697-6.542,4.707-10.296   C121.004,46.298,119.378,42.742,116.293,39.714z"/><path d="M124.997,50.082c0.014-4.998-2.011-9.745-5.7-13.367c-0.003-0.002-0.005-0.005-0.007-0.007l-14.002-14.003   c-0.018-0.018-0.035-0.036-0.051-0.055L91.285,8.698c-3.616-3.684-8.345-5.707-13.324-5.707c-0.018,0-0.033,0-0.051,0   c-4.959,0.014-9.647,2.037-13.2,5.696L35.7,37.698c-6.011,5.8-8.418,18.825-1.85,29.778c2.744,4.576,2.052,9.662-2.059,15.116   c-0.553,0.733-1.364,2.662-0.173,3.618c0.028,0.023,0.056,0.048,0.081,0.073l5.002,5.002c0.018,0.018,0.035,0.036,0.051,0.055   l4.951,4.952c0.007,0.007,0.013,0.015,0.02,0.022c0,0,0,0,0,0c0,0,0,0.001,0.001,0.001c0.018,0.019,0.035,0.037,0.052,0.058   c0.955,1.191,2.885,0.38,3.618-0.173c3.274-2.467,6.417-3.703,9.395-3.703c1.982,0,3.893,0.548,5.722,1.645   c10.955,6.566,23.979,4.158,29.766-1.837l29.013-29.012C122.961,59.729,124.984,55.041,124.997,50.082z M88.7,90.707   C84.951,94.408,79.771,96,74.629,96c-4.373,0-8.72-1.151-12.138-3.135l-0.183-0.106C60.534,91.727,57.565,90,54.993,90   c-2.299,0-5.879,0.394-10.398,3.799c-0.396,0.299-0.957,0.262-1.309-0.092l-9-9c-0.347-0.347-0.391-0.893-0.105-1.29   c5.568-7.756,4.144-13.46,1.969-16.88c-5.039-7.921-6.346-20.168,1.156-27.264l28.98-28.98C69.584,6.896,73.744,5.012,77.99,5   c4.262,0,8.312,1.832,11.717,5.3l11.329,10.979c0.023,0.023,0.047,0.048,0.068,0.073L117.7,38.293   c3.475,3.413,5.305,7.462,5.293,11.71c-0.011,4.242-1.895,8.402-5.303,11.714L88.7,90.707z"/></g></svg>